<svg width="93" height="27" viewBox="0 0 93 27" fill="none" xmlns="http://www.w3.org/2000/svg">
<path d="M17.3002 7.136C17.1322 6.968 16.8202 6.74 16.3642 6.452C15.9322 6.164 15.3922 5.888 14.7442 5.624C14.1202 5.36 13.4362 5.132 12.6922 4.94C11.9482 4.724 11.1922 4.616 10.4242 4.616C9.0802 4.616 8.0602 4.868 7.3642 5.372C6.6922 5.876 6.3562 6.584 6.3562 7.496C6.3562 8.192 6.5722 8.744 7.0042 9.152C7.4362 9.56 8.0842 9.908 8.9482 10.196C9.8122 10.484 10.8922 10.796 12.1882 11.132C13.8682 11.54 15.3202 12.044 16.5442 12.644C17.7922 13.22 18.7402 13.988 19.3882 14.948C20.0602 15.884 20.3962 17.132 20.3962 18.692C20.3962 20.06 20.1442 21.236 19.6402 22.22C19.1362 23.18 18.4402 23.96 17.5522 24.56C16.6642 25.16 15.6562 25.604 14.5282 25.892C13.4002 26.156 12.2002 26.288 10.9282 26.288C9.6562 26.288 8.3842 26.156 7.1122 25.892C5.8402 25.628 4.6162 25.256 3.4402 24.776C2.2642 24.272 1.1842 23.672 0.200203 22.976L2.3962 18.692C2.6122 18.908 2.9962 19.196 3.5482 19.556C4.1002 19.892 4.7722 20.24 5.5642 20.6C6.3562 20.936 7.2202 21.224 8.1562 21.464C9.0922 21.704 10.0402 21.824 11.0002 21.824C12.3442 21.824 13.3642 21.596 14.0602 21.14C14.7562 20.684 15.1042 20.036 15.1042 19.196C15.1042 18.428 14.8282 17.828 14.2762 17.396C13.7242 16.964 12.9562 16.592 11.9722 16.28C10.9882 15.944 9.8242 15.584 8.4802 15.2C6.8722 14.744 5.5282 14.24 4.4482 13.688C3.3682 13.112 2.5642 12.392 2.0362 11.528C1.5082 10.664 1.2442 9.584 1.2442 8.288C1.2442 6.536 1.6522 5.072 2.4682 3.896C3.3082 2.696 4.4362 1.796 5.8522 1.196C7.2682 0.571999 8.8402 0.259999 10.5682 0.259999C11.7682 0.259999 12.8962 0.391999 13.9522 0.655998C15.0322 0.919999 16.0402 1.268 16.9762 1.7C17.9122 2.132 18.7522 2.6 19.4962 3.104L17.3002 7.136ZM46.5198 7.136H51.0918L43.2078 26H39.1758L36.0078 17.9L32.9118 26H28.8438L20.9958 7.136H25.5318L31.1478 21.392L33.3438 15.236L30.0678 7.172H34.0638L36.0078 12.932L37.9878 7.172H41.9838L38.7078 15.236L40.9398 21.392L46.5198 7.136ZM61.4342 26.36C59.9222 26.36 58.5542 26.108 57.3302 25.604C56.1062 25.076 55.0622 24.368 54.1982 23.48C53.3342 22.568 52.6622 21.536 52.1822 20.384C51.7262 19.208 51.4982 17.972 51.4982 16.676C51.4982 14.876 51.8942 13.232 52.6862 11.744C53.5022 10.256 54.6542 9.068 56.1422 8.18C57.6542 7.268 59.4302 6.812 61.4702 6.812C63.5342 6.812 65.2982 7.268 66.7622 8.18C68.2262 9.068 69.3422 10.256 70.1102 11.744C70.9022 13.208 71.2982 14.792 71.2982 16.496C71.2982 16.784 71.2862 17.084 71.2622 17.396C71.2382 17.684 71.2142 17.924 71.1902 18.116H56.6102C56.7062 19.076 56.9822 19.916 57.4382 20.636C57.9182 21.356 58.5182 21.908 59.2382 22.292C59.9822 22.652 60.7742 22.832 61.6142 22.832C62.5742 22.832 63.4742 22.604 64.3142 22.148C65.1782 21.668 65.7662 21.044 66.0782 20.276L70.2182 21.428C69.7622 22.388 69.1022 23.24 68.2382 23.984C67.3982 24.728 66.4022 25.316 65.2502 25.748C64.0982 26.156 62.8262 26.36 61.4342 26.36ZM56.5022 15.056H66.3662C66.2702 14.096 65.9942 13.268 65.5382 12.572C65.1062 11.852 64.5302 11.3 63.8102 10.916C63.0902 10.508 62.2862 10.304 61.3982 10.304C60.5342 10.304 59.7422 10.508 59.0222 10.916C58.3262 11.3 57.7502 11.852 57.2942 12.572C56.8622 13.268 56.5982 14.096 56.5022 15.056ZM82.985 26.36C81.473 26.36 80.105 26.108 78.881 25.604C77.657 25.076 76.613 24.368 75.749 23.48C74.885 22.568 74.213 21.536 73.733 20.384C73.277 19.208 73.049 17.972 73.049 16.676C73.049 14.876 73.445 13.232 74.237 11.744C75.053 10.256 76.205 9.068 77.693 8.18C79.205 7.268 80.981 6.812 83.021 6.812C85.085 6.812 86.849 7.268 88.313 8.18C89.777 9.068 90.893 10.256 91.661 11.744C92.453 13.208 92.849 14.792 92.849 16.496C92.849 16.784 92.837 17.084 92.813 17.396C92.789 17.684 92.765 17.924 92.741 18.116H78.161C78.257 19.076 78.533 19.916 78.989 20.636C79.469 21.356 80.069 21.908 80.789 22.292C81.533 22.652 82.325 22.832 83.165 22.832C84.125 22.832 85.025 22.604 85.865 22.148C86.729 21.668 87.317 21.044 87.629 20.276L91.769 21.428C91.313 22.388 90.653 23.24 89.789 23.984C88.949 24.728 87.953 25.316 86.801 25.748C85.649 26.156 84.377 26.36 82.985 26.36ZM78.053 15.056H87.917C87.821 14.096 87.545 13.268 87.089 12.572C86.657 11.852 86.081 11.3 85.361 10.916C84.641 10.508 83.837 10.304 82.949 10.304C82.085 10.304 81.293 10.508 80.573 10.916C79.877 11.3 79.301 11.852 78.845 12.572C78.413 13.268 78.149 14.096 78.053 15.056Z" fill="#091E28"/>
</svg>
